<svg width="32" height="32" viewBox="0 0 32 32" fill="none" xmlns="http://www.w3.org/2000/svg">
<path fill-rule="evenodd" clip-rule="evenodd" d="M23.8861 8.2421C23.3637 7.72283 22.518 7.72419 21.9973 8.24512L15.9993 14.1134L9.8918 8.11957L9.76616 8.00858C9.24289 7.60151 8.48526 7.63722 8.00304 8.11655C7.48064 8.63581 7.47928 9.47906 8.00001 10L14.1136 15.9999L8.11352 21.8745L8.00262 22.0001C7.59609 22.5232 7.63434 23.2786 8.11656 23.7579C8.63896 24.2772 9.48458 24.2758 10.0053 23.7549L15.9993 17.8864L21.6366 23.6439L21.7623 23.7549C22.2855 24.162 23.0432 24.1263 23.5254 23.6469C24.0478 23.1277 24.0491 22.2844 23.5284 21.7635L17.8851 15.9999L23.8891 10.1255L24 9.99991C24.4065 9.4768 24.3683 8.72142 23.8861 8.2421Z" fill="#4D4F56"/>
</svg>
